<?xml version="1.0" encoding="utf-8"?>
<!-- Generator: Adobe Illustrator 22.1.0, SVG Export Plug-In . SVG Version: 6.00 Build 0)  -->
<svg version="1.1" id="black_x5F_logo" xmlns="http://www.w3.org/2000/svg" xmlns:xlink="http://www.w3.org/1999/xlink" x="0px"
	 y="0px" viewBox="0 0 150 150" style="enable-background:new 0 0 150 150;" xml:space="preserve">
<style type="text/css">
	.st0{fill:#13131E;}
	.st1{fill:#FFFFFF;}
</style>
<g id="circle">
	<circle class="st0" cx="75.5" cy="75.5" r="59"/>
</g>
<g id="Bars">
	<path id="bar_x5F_one" class="st1" d="M44.4,103.1H40c-1.4,0-2.5-1.1-2.5-2.5V62.4c0-1.4,1.1-2.5,2.5-2.5h4.4
		c1.4,0,2.5,1.1,2.5,2.5v38.3C46.9,102,45.8,103.1,44.4,103.1z"/>
	<path id="bar_x5F_two" class="st1" d="M61.1,103.1h-4.4c-1.4,0-2.5-1.1-2.5-2.5V74.3c0-1.4,1.1-2.5,2.5-2.5h4.4
		c1.4,0,2.5,1.1,2.5,2.5v26.4C63.5,102,62.4,103.1,61.1,103.1z"/>
	<path id="bar_x5F_three" class="st1" d="M77.7,103.1h-4.4c-1.4,0-2.5-1.1-2.5-2.5V78.6c0-1.4,1.1-2.5,2.5-2.5h4.4
		c1.4,0,2.5,1.1,2.5,2.5v22.1C80.2,102,79.1,103.1,77.7,103.1z"/>
	<path id="bar_x5F_four" class="st1" d="M94.4,103.1h-4.4c-1.4,0-2.5-1.1-2.5-2.5V62.4c0-1.4,1.1-2.5,2.5-2.5h4.4
		c1.4,0,2.5,1.1,2.5,2.5v38.3C96.8,102,95.7,103.1,94.4,103.1z"/>
	<path id="bar_x5F_five" class="st1" d="M111,103.1h-4.4c-1.4,0-2.5-1.1-2.5-2.5V50.5c0-1.4,1.1-2.5,2.5-2.5h4.4
		c1.4,0,2.5,1.1,2.5,2.5v50.2C113.5,102,112.4,103.1,111,103.1z"/>
</g>
</svg>
