<?xml version="1.0" encoding="utf-8"?>
<!-- Generator: Adobe Illustrator 22.1.0, SVG Export Plug-In . SVG Version: 6.00 Build 0)  -->
<svg version="1.1" id="colour_x5F_logo" xmlns="http://www.w3.org/2000/svg" xmlns:xlink="http://www.w3.org/1999/xlink" x="0px"
	 y="0px" viewBox="0 0 150 150" style="enable-background:new 0 0 150 150;" xml:space="preserve">
<style type="text/css">
	.st0{fill:url(#SVGID_1_);}
	.st1{fill:#FFFFFF;}
</style>
<g id="circle">
	<linearGradient id="SVGID_1_" gradientUnits="userSpaceOnUse" x1="34.4824" y1="122.7705" x2="130.4828" y2="10.7701">
		<stop  offset="0" style="stop-color:#5FC6C9"/>
		<stop  offset="1" style="stop-color:#64D2B9"/>
	</linearGradient>
	<circle class="st0" cx="75" cy="75.5" r="59"/>
</g>
<g id="bars">
	<path id="bar_x5F_one" class="st1" d="M44.9,102.1h-4.4c-1.4,0-2.5-1.1-2.5-2.5V61.4c0-1.4,1.1-2.5,2.5-2.5h4.4
		c1.4,0,2.5,1.1,2.5,2.5v38.3C47.4,101,46.3,102.1,44.9,102.1z"/>
	<path id="bar_x5F_two" class="st1" d="M61.6,102.1h-4.4c-1.4,0-2.5-1.1-2.5-2.5V73.3c0-1.4,1.1-2.5,2.5-2.5h4.4
		c1.4,0,2.5,1.1,2.5,2.5v26.4C64,101,62.9,102.1,61.6,102.1z"/>
	<path id="bar_x5F_three" class="st1" d="M78.2,102.1h-4.4c-1.4,0-2.5-1.1-2.5-2.5V77.6c0-1.4,1.1-2.5,2.5-2.5h4.4
		c1.4,0,2.5,1.1,2.5,2.5v22.1C80.7,101,79.6,102.1,78.2,102.1z"/>
	<path id="bar_x5F_four" class="st1" d="M94.9,102.1h-4.4c-1.4,0-2.5-1.1-2.5-2.5V61.4c0-1.4,1.1-2.5,2.5-2.5h4.4
		c1.4,0,2.5,1.1,2.5,2.5v38.3C97.3,101,96.2,102.1,94.9,102.1z"/>
	<path id="bar_x5F_five" class="st1" d="M111.5,102.1h-4.4c-1.4,0-2.5-1.1-2.5-2.5V49.5c0-1.4,1.1-2.5,2.5-2.5h4.4
		c1.4,0,2.5,1.1,2.5,2.5v50.2C114,101,112.9,102.1,111.5,102.1z"/>
</g>
</svg>
