<?xml version="1.0" encoding="utf-8"?>
<!-- Generator: Adobe Illustrator 22.1.0, SVG Export Plug-In . SVG Version: 6.00 Build 0)  -->
<svg version="1.1" id="Social_Media_Icons" xmlns="http://www.w3.org/2000/svg" xmlns:xlink="http://www.w3.org/1999/xlink" x="0px"
	 y="0px" viewBox="0 0 80 80" style="enable-background:new 0 0 80 80;" xml:space="preserve">
<style type="text/css">
	.st0{fill:#5FC6C9;}
</style>
<g id="instagram_2_">
	<path class="st0" d="M48.7,26.9H32c-2.7,0-4.8,2.2-4.8,4.8v16.6c0,2.6,2.2,4.8,4.8,4.8h16.7c2.7,0,4.8-2.2,4.8-4.8V31.7
		C53.5,29,51.3,26.9,48.7,26.9z M40.3,48.6c-4.8,0-8.7-3.9-8.7-8.6c0-4.8,3.9-8.6,8.7-8.6S49,35.3,49,40S45.1,48.6,40.3,48.6z
		 M49.3,33.1c-1.1,0-2.1-0.9-2.1-2s0.9-2,2.1-2c1.1,0,2.1,0.9,2.1,2C51.4,32.2,50.4,33.1,49.3,33.1z"/>
	<path id="inner_2_" class="st0" d="M40.3,35c-2.8,0-5,2.2-5,5c0,2.7,2.2,5,5,5s5-2.2,5-5S43.1,35,40.3,35z"/>
	<path id="outer_2_" class="st0" d="M40.3,12.1c-15.5,0-28,12.5-28,27.8s12.5,27.8,28,27.8s28-12.5,28-27.8S55.8,12.1,40.3,12.1z
		 M57.2,48.3c0,4.7-3.8,8.4-8.5,8.4H32c-4.7,0-8.5-3.8-8.5-8.4V31.7c0-4.7,3.8-8.4,8.5-8.4h16.7c4.7,0,8.5,3.8,8.5,8.4V48.3z"/>
</g>
<g id="facebook">
</g>
</svg>
