<?xml version="1.0" encoding="utf-8"?>
<!-- Generator: Adobe Illustrator 22.1.0, SVG Export Plug-In . SVG Version: 6.00 Build 0)  -->
<svg version="1.1" id="Layer_1" xmlns="http://www.w3.org/2000/svg" xmlns:xlink="http://www.w3.org/1999/xlink" x="0px" y="0px"
	 viewBox="0 0 30 6.7" style="enable-background:new 0 0 30 6.7;" xml:space="preserve">
<g>
	<path d="M1.1,4.8C1.3,5,1.7,5.1,2,5.1c0.6,0,0.9-0.3,0.9-0.7c0-0.4-0.2-0.6-0.8-0.8C1.4,3.3,1,3,1,2.4c0-0.7,0.5-1.1,1.4-1.1
		c0.4,0,0.7,0.1,0.9,0.2L3.2,1.9C3,1.8,2.7,1.7,2.4,1.7C1.8,1.7,1.6,2,1.6,2.3c0,0.4,0.3,0.6,0.8,0.8c0.7,0.3,1.1,0.6,1.1,1.2
		C3.5,5,3,5.6,2,5.6c-0.4,0-0.9-0.1-1.1-0.3L1.1,4.8z"/>
	<path d="M5.1,5.5L3.8,1.3h0.6L5,3.4c0.2,0.6,0.3,1.1,0.5,1.6h0c0.1-0.5,0.3-1,0.5-1.6l0.7-2.1h0.6L5.7,5.5H5.1z"/>
	<path d="M10.9,5.3c-0.2,0.1-0.7,0.2-1.3,0.2C9,5.5,8.5,5.4,8.1,5C7.7,4.6,7.5,4.1,7.5,3.4c0-1.3,0.9-2.2,2.3-2.2
		c0.5,0,0.9,0.1,1.1,0.2l-0.1,0.4c-0.2-0.1-0.5-0.2-0.9-0.2C8.7,1.7,8,2.3,8,3.4c0,1.1,0.6,1.7,1.6,1.7C10,5.1,10.3,5,10.4,5V3.7
		H9.5V3.3h1.4V5.3z"/>
	<path d="M13.8,4.6h2.3v0.9h-3.4V1.1h1.1V4.6z"/>
	<path d="M20.5,4.3c0,0.4-0.1,0.8-0.3,1c-0.2,0.2-0.5,0.3-1,0.3h-1.6c-0.4,0-0.8-0.1-1-0.3c-0.2-0.2-0.3-0.5-0.3-1v-2
		c0-0.4,0.1-0.8,0.3-1s0.5-0.3,1-0.3h1.6c0.4,0,0.8,0.1,1,0.3s0.3,0.5,0.3,1V4.3z M19.3,2.3c0-0.3-0.1-0.4-0.4-0.4h-1.1
		c-0.3,0-0.4,0.1-0.4,0.4v2c0,0.3,0.1,0.4,0.4,0.4h1.1c0.3,0,0.4-0.1,0.4-0.4V2.3z"/>
	<path d="M24.8,5.4c-1,0.1-1.9,0.2-2.7,0.2c-0.4,0-0.7-0.1-0.9-0.3C21,5.1,21,4.8,21,4.4v-2c0-0.4,0.1-0.8,0.3-1s0.5-0.3,1-0.3h2.3
		V2h-2c-0.3,0-0.4,0.1-0.4,0.4v2c0,0.1,0,0.2,0.1,0.2s0.1,0.1,0.2,0.1c0.5,0,0.9,0,1.3,0V3.8h-0.8V3h1.9V5.4z"/>
	<path d="M29.4,4.3c0,0.4-0.1,0.8-0.3,1c-0.2,0.2-0.5,0.3-1,0.3h-1.6c-0.4,0-0.8-0.1-1-0.3c-0.2-0.2-0.3-0.5-0.3-1v-2
		c0-0.4,0.1-0.8,0.3-1s0.5-0.3,1-0.3h1.6c0.4,0,0.8,0.1,1,0.3s0.3,0.5,0.3,1V4.3z M28.3,2.3c0-0.3-0.1-0.4-0.4-0.4h-1.1
		c-0.3,0-0.4,0.1-0.4,0.4v2c0,0.3,0.1,0.4,0.4,0.4h1.1c0.3,0,0.4-0.1,0.4-0.4V2.3z"/>
</g>
</svg>
