<?xml version="1.0" encoding="utf-8"?>
<!-- Generator: Adobe Illustrator 21.1.0, SVG Export Plug-In . SVG Version: 6.00 Build 0)  -->
<svg version="1.1" id="Layer_1" xmlns="http://www.w3.org/2000/svg" xmlns:xlink="http://www.w3.org/1999/xlink" x="0px" y="0px"
	 viewBox="0 0 632 59" style="enable-background:new 0 0 632 59;" xml:space="preserve">
<style type="text/css">
	.st0{fill:#0C0C19;}
	.st1{fill:#5FC6C9;}
</style>
<g>
	<g>
		<path class="st0" d="M43.3,22.9c0,10.9-8,17.3-20.9,17.3H8v16.4H3.5V5.7h18.9C35.3,5.7,43.3,12,43.3,22.9z M38.7,22.9
			c0-8.5-5.7-13.3-16.5-13.3H8v26.7h14.2C33,36.3,38.7,31.4,38.7,22.9z"/>
	</g>
	<g>
		<path class="st0" d="M60.6,35.1V5.7h4.5v29.2c0,12.1,6,18.1,16.5,18.1S98,47.1,98,34.9V5.7h4.5v29.4c0,14.4-7.9,22-20.9,22
			C68.6,57,60.6,49.4,60.6,35.1z"/>
	</g>
	<g>
		<path class="st0" d="M160.1,56.6L148,39.8c-1.4,0.2-3,0.3-4.5,0.3h-14.4v16.5h-4.5V5.7h18.9c12.9,0,20.9,6.3,20.9,17.3
			c0,8-4.4,13.7-12,16l12.8,17.6H160.1z M159.7,22.9c0-8.5-5.7-13.3-16.5-13.3h-14.2v26.7h14.2C154,36.3,159.7,31.4,159.7,22.9z"/>
	</g>
	<g>
		<path class="st0" d="M222,52.7v3.9h-36V5.7h34.9v4h-30.4v19.2h27.1v3.9h-27.1v20H222z"/>
	</g>
	<g>
		<path class="st1" d="M296.1,4.4l-22.5,52.3l-17.2,0L233.9,4.4l18.5,0l13,31.9l13.5-31.9L296.1,4.4z"/>
	</g>
	<g>
		<path class="st1" d="M304.1,30.5c0-15.8,12.6-27.3,29.9-27.3s29.9,11.5,29.9,27.3c0,15.7-12.6,27.3-29.9,27.3
			S304.1,46.3,304.1,30.5z M346.3,30.5c0-7.9-5.2-13.4-12.3-13.4s-12.4,5.5-12.4,13.4c0,7.9,5.3,13.4,12.4,13.4
			S346.3,38.4,346.3,30.5z"/>
	</g>
	<g>
		<path class="st1" d="M379.3,4.3l17.5,0l0,39.1l24.2,0l0,13.2l-41.7,0L379.3,4.3z"/>
	</g>
	<g>
		<path class="st1" d="M436.4,33.9l0-29.6l17.5,0l0,29c0,7,2.9,10.5,8.5,10.5c5.5,0,8.4-3.5,8.4-10.5l0-29l17.1,0l0,29.6
			c0,14.6-9.4,23.9-25.7,23.9C445.9,57.7,436.4,48.4,436.4,33.9z"/>
	</g>
	<g>
		<path class="st1" d="M553.5,56.5l-0.2-24.6l-11.7,19.4l-7.8,0L522,32.8l0,23.7l-16,0l0-52.3l14.5,0l17.5,28l16.9-28l14.6,0
			l0.1,52.3L553.5,56.5z"/>
	</g>
	<g>
		<path class="st1" d="M632,43.6l0,12.8l-43.9,0l0-52.3l42.9,0l0,12.8l-25.7,0l0,6.9l22.6,0l0,12.1l-22.6,0l0,7.6L632,43.6z"/>
	</g>
</g>
</svg>
