<?xml version="1.0" encoding="utf-8"?>
<!-- Generator: Adobe Illustrator 22.1.0, SVG Export Plug-In . SVG Version: 6.00 Build 0)  -->
<svg version="1.1" id="mute" xmlns="http://www.w3.org/2000/svg" xmlns:xlink="http://www.w3.org/1999/xlink" x="0px" y="0px"
	 viewBox="0 0 80 80" style="enable-background:new 0 0 80 80;" xml:space="preserve">
<style type="text/css">
	.st0{fill:#5FC6C9;}
</style>
<path id="speaker" class="st0" d="M15.5,34.2c0.5-1.2,0.8-1.4,2.1-1.4c2.9,0,5.8,0,8.7,0c0.3,0,0.6-0.1,0.8-0.3
	c3.3-2.9,6.6-5.7,9.9-8.5c1-0.9,2.3-0.6,2.7,0.6c0.1,0.2,0.1,0.4,0.1,0.7c0,10.2,0,20.4,0,30.6c0,0.9-0.4,1.5-1.3,1.8
	c-0.2,0-0.4,0-0.7,0c-0.3-0.2-0.6-0.3-0.8-0.5c-3.4-2.9-6.7-5.8-10.1-8.7c-0.3-0.2-0.5-0.3-0.9-0.3c-2.8,0-5.7,0-8.5,0
	c-1.3,0-1.7-0.2-2.1-1.5C15.5,42.4,15.5,38.3,15.5,34.2z"/>
<g id="X">
	<path class="st0" d="M64.9,46.4l-6.8-6.7l6.7-6.8c0.7-0.7,0.6-1.7,0-2.4c-0.7-0.7-1.7-0.6-2.4,0l-6.7,6.8L49,30.7
		c-0.7-0.7-1.7-0.6-2.4,0c-0.7,0.7-0.6,1.7,0,2.4l6.8,6.7l-6.7,6.8c-0.7,0.7-0.6,1.7,0,2.4c0.7,0.7,1.7,0.6,2.4,0l6.7-6.8l6.8,6.7
		c0.7,0.7,1.7,0.6,2.4,0C65.5,48.1,65.5,47,64.9,46.4z"/>
</g>
</svg>
