<?xml version="1.0" encoding="utf-8"?>
<!-- Generator: Adobe Illustrator 22.1.0, SVG Export Plug-In . SVG Version: 6.00 Build 0)  -->
<svg version="1.1" id="pause" xmlns="http://www.w3.org/2000/svg" xmlns:xlink="http://www.w3.org/1999/xlink" x="0px" y="0px"
	 viewBox="0 0 80 80" style="enable-background:new 0 0 80 80;" xml:space="preserve">
<style type="text/css">
	.st0{fill:#5FC6C9;}
</style>
<path id="circle" class="st0" d="M40.3,77.3c-20.2,0-36.7-16.5-36.7-36.7S20.1,3.9,40.3,3.9S77,20.4,77,40.6S60.5,77.3,40.3,77.3z
	 M40.3,8.5C22.6,8.5,8.2,22.9,8.2,40.6c0,17.7,14.4,32.1,32.1,32.1s32.1-14.4,32.1-32.1C72.4,22.9,58,8.5,40.3,8.5z"/>
<g id="lines">
	<path id="left" class="st0" d="M28.6,59h5.8c0.7,0,1.3-0.6,1.3-1.3V23.6c0-0.7-0.6-1.3-1.3-1.3h-5.8c-0.7,0-1.3,0.6-1.3,1.3v34.1
		C27.3,58.4,27.9,59,28.6,59z"/>
	<path id="right" class="st0" d="M46.2,59H52c0.7,0,1.3-0.6,1.3-1.3V23.6c0-0.7-0.6-1.3-1.3-1.3h-5.8c-0.7,0-1.3,0.6-1.3,1.3v34.1
		C44.9,58.4,45.5,59,46.2,59z"/>
</g>
</svg>
