<?xml version="1.0" encoding="utf-8"?>
<!-- Generator: Adobe Illustrator 22.1.0, SVG Export Plug-In . SVG Version: 6.00 Build 0)  -->
<svg version="1.1" id="play" xmlns="http://www.w3.org/2000/svg" xmlns:xlink="http://www.w3.org/1999/xlink" x="0px" y="0px"
	 viewBox="0 0 80 80" style="enable-background:new 0 0 80 80;" xml:space="preserve">
<style type="text/css">
	.st0{fill:#5FC6C9;}
</style>
<polygon id="triangle" class="st0" points="28,23.2 28,57.2 57.5,39.8 "/>
<path id="circle" class="st0" d="M39.9,76.5c-20,0-36.3-16.3-36.3-36.3c0-20,16.3-36.3,36.3-36.3c20,0,36.3,16.3,36.3,36.3
	C76.2,60.2,59.9,76.5,39.9,76.5z M39.9,8.4C22.4,8.4,8.2,22.7,8.2,40.2C8.2,57.7,22.4,72,39.9,72c17.5,0,31.8-14.2,31.8-31.8
	C71.7,22.7,57.4,8.4,39.9,8.4z"/>
</svg>
