<?xml version="1.0" encoding="utf-8"?>
<!-- Generator: Adobe Illustrator 22.1.0, SVG Export Plug-In . SVG Version: 6.00 Build 0)  -->
<svg version="1.1" id="Social_Media_Icons" xmlns="http://www.w3.org/2000/svg" xmlns:xlink="http://www.w3.org/1999/xlink" x="0px"
	 y="0px" viewBox="0 0 80 80" style="enable-background:new 0 0 80 80;" xml:space="preserve">
<style type="text/css">
	.st0{fill:#FCFCFC;}
</style>
<path class="st0" d="M40.6,12c-15.4,0-27.9,12.5-27.9,27.9s12.5,27.9,27.9,27.9s27.9-12.5,27.9-27.9S56.1,12,40.6,12z M54.4,35.5
	c0,0.3,0,0.6,0,0.9c0,8.8-6.7,19-19,19c-3.8,0-7.3-1.1-10.2-3c0.5,0.1,1.1,0.1,1.6,0.1c3.1,0,6-1.1,8.3-2.9c-2.9-0.1-5.4-2-6.2-4.6
	c0.4,0.1,0.8,0.1,1.3,0.1c0.6,0,1.2-0.1,1.8-0.2c-3.1-0.6-5.4-3.3-5.4-6.5v-0.1c0.9,0.5,1.9,0.8,3,0.8c-1.8-1.2-3-3.2-3-5.6
	c0-1.2,0.3-2.4,0.9-3.4c3.3,4,8.2,6.7,13.8,7c-0.1-0.5-0.2-1-0.2-1.5c0-3.7,3-6.7,6.7-6.7c1.9,0,3.7,0.8,4.9,2.1
	c1.5-0.3,2.9-0.9,4.2-1.6c-0.5,1.6-1.6,2.9-2.9,3.7c1.4-0.2,2.6-0.5,3.8-1.1C56.8,33.4,55.7,34.6,54.4,35.5z"/>
<g id="facebook">
</g>
</svg>
