<?xml version="1.0" encoding="utf-8"?>
<!-- Generator: Adobe Illustrator 22.1.0, SVG Export Plug-In . SVG Version: 6.00 Build 0)  -->
<svg version="1.1" id="volume_x5F_up" xmlns="http://www.w3.org/2000/svg" xmlns:xlink="http://www.w3.org/1999/xlink" x="0px"
	 y="0px" viewBox="0 0 80 80" style="enable-background:new 0 0 80 80;" xml:space="preserve">
<style type="text/css">
	.st0{fill:#5FC6C9;}
</style>
<path id="speaker" class="st0" d="M17.5,34.2c0.5-1.2,0.8-1.4,2.1-1.4c2.9,0,5.8,0,8.7,0c0.3,0,0.6-0.1,0.8-0.3
	c3.3-2.9,6.6-5.7,9.9-8.5c1-0.9,2.3-0.6,2.7,0.6c0.1,0.2,0.1,0.4,0.1,0.7c0,10.2,0,20.4,0,30.6c0,0.9-0.4,1.5-1.3,1.8
	c-0.2,0-0.4,0-0.7,0c-0.3-0.2-0.6-0.3-0.8-0.5c-3.4-2.9-6.7-5.8-10.1-8.7c-0.3-0.2-0.5-0.3-0.9-0.3c-2.8,0-5.7,0-8.5,0
	c-1.3,0-1.7-0.2-2.1-1.5C17.5,42.4,17.5,38.3,17.5,34.2z"/>
<path id="inner" class="st0" d="M61.3,40.5c0,6.1-1.9,11.5-5.6,16.3c-0.5,0.7-1.5,0.8-2.2,0.4c-0.7-0.5-0.9-1.4-0.4-2.2
	c0.8-1.2,1.7-2.3,2.3-3.6c4.2-8.7,3.6-16.9-2-24.8c-0.1-0.2-0.3-0.3-0.4-0.5c-0.5-0.7-0.4-1.7,0.3-2.2c0.7-0.5,1.7-0.5,2.2,0.3
	c0.9,1.2,1.8,2.5,2.5,3.8C60.2,31.8,61.2,36,61.3,40.5z"/>
<path id="middle" class="st0" d="M52.4,40.1c-0.2-3.5-1.3-6.7-3.3-9.6c-0.2-0.3-0.4-0.6-0.5-1c-0.2-0.7,0.2-1.4,0.8-1.7
	c0.7-0.3,1.5-0.2,1.9,0.5c0.7,1.1,1.5,2.3,2.1,3.5c3.2,7.2,2.6,14.2-1.9,20.7c-0.5,0.7-1.1,0.9-1.8,0.7c-0.7-0.2-1.1-0.7-1.1-1.3
	c0-0.4,0.1-0.9,0.4-1.3c1.4-2.1,2.5-4.3,2.9-6.8C52.2,42.6,52.3,41.3,52.4,40.1z"/>
<path id="outer" class="st0" d="M49.3,40.5c0,2.7-0.7,5.2-2.1,7.5c-0.4,0.7-1,1-1.8,0.8c-0.6-0.1-1.1-0.7-1.2-1.3
	c0-0.4,0.1-0.8,0.3-1.1c1.3-2.2,1.8-4.5,1.6-6.9c-0.2-1.7-0.7-3.2-1.6-4.7c-0.5-0.9-0.4-1.8,0.4-2.3c0.8-0.5,1.7-0.3,2.3,0.6
	C48.6,35.3,49.3,37.8,49.3,40.5z"/>
</svg>
