<?xml version="1.0" encoding="utf-8"?>
<!-- Generator: Adobe Illustrator 22.1.0, SVG Export Plug-In . SVG Version: 6.00 Build 0)  -->
<svg version="1.1" id="workmark_x5F_logo" xmlns="http://www.w3.org/2000/svg" xmlns:xlink="http://www.w3.org/1999/xlink" x="0px"
	 y="0px" viewBox="0 0 510 93" style="enable-background:new 0 0 510 93;" xml:space="preserve">
<style type="text/css">
	.st0{fill:#0C0C19;}
	.st1{fill:#5FC6C9;}
	.st2{fill:url(#SVGID_1_);}
	.st3{fill:#FFFFFF;}
</style>
<g id="wordmark">
	<g id="P">
		<path class="st0" d="M51.8,43.3c0,7.1-5.2,11.2-13.5,11.2h-9.3v10.6H26v-33h12.3C46.6,32.1,51.8,36.3,51.8,43.3z M48.8,43.3
			c0-5.5-3.7-8.6-10.7-8.6h-9.2V52h9.2C45.1,52,48.8,48.9,48.8,43.3z"/>
	</g>
	<g id="U_1_">
		<path class="st0" d="M63.1,51.2V32.1H66v18.9c0,7.9,3.9,11.7,10.7,11.7c6.8,0,10.6-3.8,10.6-11.7V32.1h2.9v19.1
			c0,9.3-5.1,14.2-13.5,14.2C68.2,65.4,63.1,60.5,63.1,51.2z"/>
	</g>
	<g id="R">
		<path class="st0" d="M127.5,65.2l-7.9-10.8c-0.9,0.1-1.9,0.2-2.9,0.2h-9.3v10.7h-2.9v-33h12.3c8.4,0,13.5,4.1,13.5,11.2
			c0,5.2-2.9,8.9-7.8,10.4l8.3,11.4H127.5z M127.3,43.3c0-5.5-3.7-8.6-10.7-8.6h-9.2V52h9.2C123.6,52,127.3,48.9,127.3,43.3z"/>
	</g>
	<g id="E_1_">
		<path class="st0" d="M167.6,62.6v2.5h-23.3v-33h22.6v2.6h-19.7v12.4h17.6v2.5h-17.6v13H167.6z"/>
	</g>
	<g id="V">
		<path class="st1" d="M215.7,31.3l-14.6,33.9l-11.1,0l-14.6-33.9l12,0l8.5,20.7l8.7-20.7L215.7,31.3z"/>
	</g>
	<g id="O">
		<path class="st1" d="M220.9,48.3c0-10.3,8.2-17.7,19.4-17.7c11.2,0,19.4,7.4,19.4,17.7c0,10.2-8.2,17.7-19.4,17.7
			C229.1,66,220.9,58.5,220.9,48.3z M248.3,48.2c0-5.1-3.3-8.7-8-8.7c-4.6,0-8,3.6-8,8.7c0,5.1,3.4,8.7,8,8.7
			C244.9,56.9,248.3,53.3,248.3,48.2z"/>
	</g>
	<g id="L">
		<path class="st1" d="M269.7,31.3l11.3,0l0,25.3l15.7,0l0,8.6l-27,0L269.7,31.3z"/>
	</g>
	<g id="U">
		<path class="st1" d="M306.7,50.4l0-19.2l11.3,0l0,18.8c0,4.5,1.9,6.8,5.5,6.8c3.6,0,5.5-2.3,5.4-6.8l0-18.8l11.1,0l0,19.2
			c0,9.4-6.1,15.5-16.6,15.5C312.8,65.9,306.7,59.9,306.7,50.4z"/>
	</g>
	<g id="M">
		<path class="st1" d="M382.6,65.1l-0.1-15.9l-7.6,12.6l-5,0l-7.6-12l0,15.4l-10.4,0l0-33.9l9.4,0l11.3,18.2l11-18.2l9.4,0l0.1,33.9
			L382.6,65.1z"/>
	</g>
	<g id="E">
		<path class="st1" d="M433.5,56.8l0,8.3l-28.4,0l0-33.9l27.8,0l0,8.3l-16.6,0l0,4.5l14.7,0l0,7.9l-14.7,0l0,4.9L433.5,56.8z"/>
	</g>
</g>
<g id="Logo">
	<g id="circle">
		<linearGradient id="SVGID_1_" gradientUnits="userSpaceOnUse" x1="456.5435" y1="61.6203" x2="484.2046" y2="29.349">
			<stop  offset="0" style="stop-color:#5FC6C9"/>
			<stop  offset="1" style="stop-color:#64D2B9"/>
		</linearGradient>
		<circle class="st2" cx="468.2" cy="48" r="17"/>
	</g>
	<g id="bars">
		<path class="st3" d="M458.6,56L458.6,56c-0.7,0-1.4-0.6-1.4-1.4v-9.7c0-0.7,0.6-1.4,1.4-1.4l0,0c0.7,0,1.4,0.6,1.4,1.4v9.7
			C460,55.4,459.4,56,458.6,56z"/>
		<path class="st3" d="M463.4,56L463.4,56c-0.7,0-1.4-0.6-1.4-1.4v-6.3c0-0.7,0.6-1.4,1.4-1.4l0,0c0.7,0,1.4,0.6,1.4,1.4v6.3
			C464.8,55.4,464.2,56,463.4,56z"/>
		<path class="st3" d="M468.2,56L468.2,56c-0.7,0-1.4-0.6-1.4-1.4v-5.1c0-0.7,0.6-1.4,1.4-1.4l0,0c0.7,0,1.4,0.6,1.4,1.4v5.1
			C469.6,55.4,469,56,468.2,56z"/>
		<path class="st3" d="M473,56L473,56c-0.7,0-1.4-0.6-1.4-1.4v-9.7c0-0.7,0.6-1.4,1.4-1.4l0,0c0.7,0,1.4,0.6,1.4,1.4v9.7
			C474.4,55.4,473.8,56,473,56z"/>
		<path class="st3" d="M477.8,56L477.8,56c-0.7,0-1.4-0.6-1.4-1.4V41.4c0-0.7,0.6-1.4,1.4-1.4l0,0c0.7,0,1.4,0.6,1.4,1.4v13.2
			C479.2,55.4,478.6,56,477.8,56z"/>
	</g>
</g>
</svg>
